<?xml version="1.0" encoding="UTF-8" standalone="no"?>
<!DOCTYPE svg PUBLIC "-//W3C//DTD SVG 1.1//EN"
 "http://www.w3.org/Graphics/SVG/1.1/DTD/svg11.dtd">
<!-- Generated by graphviz version 2.44.1 (20200629.0846)
 -->
<!-- Title: Ruta Pages: 1 -->
<svg width="512pt" height="110pt"
 viewBox="0.00 0.00 512.00 110.00" xmlns="http://www.w3.org/2000/svg" xmlns:xlink="http://www.w3.org/1999/xlink">
<g id="graph0" class="graph" transform="scale(1 1) rotate(0) translate(4 106)">
<title>Ruta</title>
<polygon fill="white" stroke="transparent" points="-4,4 -4,-106 508,-106 508,4 -4,4"/>
<text text-anchor="middle" x="252" y="-10" font-family="Times New Roman,serif" font-size="20.00">&gt;&gt;&gt; Personas &lt;&lt;&lt;</text>
<!-- nodo1 -->
<g id="node1" class="node">
<title>nodo1</title>
<ellipse fill="steelblue" stroke="black" cx="36" cy="-66" rx="36" ry="36"/>
<text text-anchor="middle" x="36" y="-62.3" font-family="Times New Roman,serif" font-size="14.00">Luis</text>
</g>
<!-- nodo2 -->
<g id="node2" class="node">
<title>nodo2</title>
<ellipse fill="yellowgreen" stroke="black" cx="144" cy="-66" rx="36" ry="36"/>
<text text-anchor="middle" x="144" y="-62.3" font-family="Times New Roman,serif" font-size="14.00">Persona</text>
</g>
<!-- nodo1&#45;&gt;nodo2 -->
<g id="edge1" class="edge">
<title>nodo1&#45;&gt;nodo2</title>
<path fill="none" stroke="black" d="M72,-66C80.15,-66 88.94,-66 97.46,-66"/>
<polygon fill="black" stroke="black" points="97.67,-69.5 107.67,-66 97.67,-62.5 97.67,-69.5"/>
</g>
<!-- nodo3 -->
<g id="node3" class="node">
<title>nodo3</title>
<ellipse fill="yellowgreen" stroke="black" cx="252" cy="-66" rx="36" ry="36"/>
<text text-anchor="middle" x="252" y="-62.3" font-family="Times New Roman,serif" font-size="14.00">Persona</text>
</g>
<!-- nodo2&#45;&gt;nodo3 -->
<g id="edge2" class="edge">
<title>nodo2&#45;&gt;nodo3</title>
<path fill="none" stroke="black" d="M180,-66C188.15,-66 196.94,-66 205.46,-66"/>
<polygon fill="black" stroke="black" points="205.67,-69.5 215.67,-66 205.67,-62.5 205.67,-69.5"/>
</g>
<!-- nodo4 -->
<g id="node4" class="node">
<title>nodo4</title>
<ellipse fill="white" stroke="black" cx="360" cy="-66" rx="36" ry="36"/>
<text text-anchor="middle" x="360" y="-62.3" font-family="Times New Roman,serif" font-size="14.00">Disponible</text>
</g>
<!-- nodo3&#45;&gt;nodo4 -->
<g id="edge3" class="edge">
<title>nodo3&#45;&gt;nodo4</title>
<path fill="none" stroke="black" d="M288,-66C296.15,-66 304.94,-66 313.46,-66"/>
<polygon fill="black" stroke="black" points="313.67,-69.5 323.67,-66 313.67,-62.5 313.67,-69.5"/>
</g>
<!-- nodo5 -->
<g id="node5" class="node">
<title>nodo5</title>
<ellipse fill="red" stroke="black" cx="468" cy="-66" rx="36" ry="36"/>
<text text-anchor="middle" x="468" y="-62.3" font-family="Times New Roman,serif" font-size="14.00">Manuel</text>
</g>
<!-- nodo4&#45;&gt;nodo5 -->
<g id="edge4" class="edge">
<title>nodo4&#45;&gt;nodo5</title>
<path fill="none" stroke="black" d="M396,-66C404.15,-66 412.94,-66 421.46,-66"/>
<polygon fill="black" stroke="black" points="421.67,-69.5 431.67,-66 421.67,-62.5 421.67,-69.5"/>
</g>
</g>
</svg>
