<?xml version="1.0" encoding="UTF-8" standalone="no"?>
<!DOCTYPE svg PUBLIC "-//W3C//DTD SVG 1.1//EN"
 "http://www.w3.org/Graphics/SVG/1.1/DTD/svg11.dtd">
<!-- Generated by graphviz version 2.44.1 (20200629.0846)
 -->
<!-- Title: Ruta Pages: 1 -->
<svg width="271pt" height="172pt"
 viewBox="0.00 0.00 271.00 172.00" xmlns="http://www.w3.org/2000/svg" xmlns:xlink="http://www.w3.org/1999/xlink">
<g id="graph0" class="graph" transform="scale(1 1) rotate(0) translate(4 168)">
<title>Ruta</title>
<polygon fill="white" stroke="transparent" points="-4,4 -4,-168 267,-168 267,4 -4,4"/>
<text text-anchor="middle" x="131.5" y="-10" font-family="Times New Roman,serif" font-size="20.00">**Equipos**</text>
<!-- struct1 -->
<g id="node1" class="node">
<title>struct1</title>
<polygon fill="yellow" stroke="transparent" points="8.5,-139 8.5,-160 75.5,-160 75.5,-139 8.5,-139"/>
<polygon fill="none" stroke="black" points="8.5,-139 8.5,-160 75.5,-160 75.5,-139 8.5,-139"/>
<text text-anchor="start" x="21.5" y="-145.8" font-family="Times New Roman,serif" font-size="14.00">Equipo</text>
<polygon fill="yellow" stroke="transparent" points="75.5,-139 75.5,-160 167.5,-160 167.5,-139 75.5,-139"/>
<polygon fill="none" stroke="black" points="75.5,-139 75.5,-160 167.5,-160 167.5,-139 75.5,-139"/>
<text text-anchor="start" x="78.5" y="-145.8" font-family="Times New Roman,serif" font-size="14.00">ColorAsignado</text>
<polygon fill="yellow" stroke="transparent" points="167.5,-139 167.5,-160 255.5,-160 255.5,-139 167.5,-139"/>
<polygon fill="none" stroke="black" points="167.5,-139 167.5,-160 255.5,-160 255.5,-139 167.5,-139"/>
<text text-anchor="start" x="170.5" y="-145.8" font-family="Times New Roman,serif" font-size="14.00">No.Integrantes</text>
<polygon fill="steelblue" stroke="transparent" points="8.5,-118 8.5,-139 75.5,-139 75.5,-118 8.5,-118"/>
<polygon fill="none" stroke="black" points="8.5,-118 8.5,-139 75.5,-139 75.5,-118 8.5,-118"/>
<text text-anchor="start" x="18" y="-124.8" font-family="Times New Roman,serif" font-size="14.00">Equipo1</text>
<polygon fill="steelblue" stroke="transparent" points="75.5,-118 75.5,-139 167.5,-139 167.5,-118 75.5,-118"/>
<polygon fill="none" stroke="black" points="75.5,-118 75.5,-139 167.5,-139 167.5,-118 75.5,-118"/>
<text text-anchor="start" x="108.5" y="-124.8" font-family="Times New Roman,serif" font-size="14.00">Azul</text>
<polygon fill="steelblue" stroke="transparent" points="167.5,-118 167.5,-139 255.5,-139 255.5,-118 167.5,-118"/>
<polygon fill="none" stroke="black" points="167.5,-118 167.5,-139 255.5,-139 255.5,-118 167.5,-118"/>
<text text-anchor="start" x="208" y="-124.8" font-family="Times New Roman,serif" font-size="14.00">7</text>
<polygon fill="darkgrey" stroke="transparent" points="8.5,-97 8.5,-118 75.5,-118 75.5,-97 8.5,-97"/>
<polygon fill="none" stroke="black" points="8.5,-97 8.5,-118 75.5,-118 75.5,-97 8.5,-97"/>
<text text-anchor="start" x="11.5" y="-103.8" font-family="Times New Roman,serif" font-size="14.00">Disponible</text>
<polygon fill="darkgrey" stroke="transparent" points="75.5,-97 75.5,-118 167.5,-118 167.5,-97 75.5,-97"/>
<polygon fill="none" stroke="black" points="75.5,-97 75.5,-118 167.5,-118 167.5,-97 75.5,-97"/>
<text text-anchor="start" x="114.5" y="-103.8" font-family="Times New Roman,serif" font-size="14.00">&#45;&#45;&#45;</text>
<polygon fill="darkgrey" stroke="transparent" points="167.5,-97 167.5,-118 255.5,-118 255.5,-97 167.5,-97"/>
<polygon fill="none" stroke="black" points="167.5,-97 167.5,-118 255.5,-118 255.5,-97 167.5,-97"/>
<text text-anchor="start" x="204.5" y="-103.8" font-family="Times New Roman,serif" font-size="14.00">&#45;&#45;&#45;</text>
<polygon fill="red" stroke="transparent" points="8.5,-76 8.5,-97 75.5,-97 75.5,-76 8.5,-76"/>
<polygon fill="none" stroke="black" points="8.5,-76 8.5,-97 75.5,-97 75.5,-76 8.5,-76"/>
<text text-anchor="start" x="18" y="-82.8" font-family="Times New Roman,serif" font-size="14.00">Equipo3</text>
<polygon fill="red" stroke="transparent" points="75.5,-76 75.5,-97 167.5,-97 167.5,-76 75.5,-76"/>
<polygon fill="none" stroke="black" points="75.5,-76 75.5,-97 167.5,-97 167.5,-76 75.5,-76"/>
<text text-anchor="start" x="107.5" y="-82.8" font-family="Times New Roman,serif" font-size="14.00">Rojo</text>
<polygon fill="red" stroke="transparent" points="167.5,-76 167.5,-97 255.5,-97 255.5,-76 167.5,-76"/>
<polygon fill="none" stroke="black" points="167.5,-76 167.5,-97 255.5,-97 255.5,-76 167.5,-76"/>
<text text-anchor="start" x="204.5" y="-82.8" font-family="Times New Roman,serif" font-size="14.00">&#45;&#45;&#45;</text>
<polygon fill="darkgrey" stroke="transparent" points="8.5,-55 8.5,-76 75.5,-76 75.5,-55 8.5,-55"/>
<polygon fill="none" stroke="black" points="8.5,-55 8.5,-76 75.5,-76 75.5,-55 8.5,-55"/>
<text text-anchor="start" x="18" y="-61.8" font-family="Times New Roman,serif" font-size="14.00">Equipo4</text>
<polygon fill="darkgrey" stroke="transparent" points="75.5,-55 75.5,-76 167.5,-76 167.5,-55 75.5,-55"/>
<polygon fill="none" stroke="black" points="75.5,-55 75.5,-76 167.5,-76 167.5,-55 75.5,-55"/>
<text text-anchor="start" x="114.5" y="-61.8" font-family="Times New Roman,serif" font-size="14.00">&#45;&#45;&#45;</text>
<polygon fill="darkgrey" stroke="transparent" points="167.5,-55 167.5,-76 255.5,-76 255.5,-55 167.5,-55"/>
<polygon fill="none" stroke="black" points="167.5,-55 167.5,-76 255.5,-76 255.5,-55 167.5,-55"/>
<text text-anchor="start" x="208" y="-61.8" font-family="Times New Roman,serif" font-size="14.00">6</text>
<polygon fill="darkgrey" stroke="transparent" points="8.5,-34 8.5,-55 75.5,-55 75.5,-34 8.5,-34"/>
<polygon fill="none" stroke="black" points="8.5,-34 8.5,-55 75.5,-55 75.5,-34 8.5,-34"/>
<text text-anchor="start" x="35" y="-40.8" font-family="Times New Roman,serif" font-size="14.00">&#45;&#45;&#45;</text>
<polygon fill="darkgrey" stroke="transparent" points="75.5,-34 75.5,-55 167.5,-55 167.5,-34 75.5,-34"/>
<polygon fill="none" stroke="black" points="75.5,-34 75.5,-55 167.5,-55 167.5,-34 75.5,-34"/>
<text text-anchor="start" x="114.5" y="-40.8" font-family="Times New Roman,serif" font-size="14.00">&#45;&#45;&#45;</text>
<polygon fill="darkgrey" stroke="transparent" points="167.5,-34 167.5,-55 255.5,-55 255.5,-34 167.5,-34"/>
<polygon fill="none" stroke="black" points="167.5,-34 167.5,-55 255.5,-55 255.5,-34 167.5,-34"/>
<text text-anchor="start" x="204.5" y="-40.8" font-family="Times New Roman,serif" font-size="14.00">&#45;&#45;&#45;</text>
</g>
</g>
</svg>
