<?xml version="1.0" encoding="UTF-8" standalone="no"?>
<!DOCTYPE svg PUBLIC "-//W3C//DTD SVG 1.1//EN"
 "http://www.w3.org/Graphics/SVG/1.1/DTD/svg11.dtd">
<!-- Generated by graphviz version 2.44.1 (20200629.0846)
 -->
<!-- Title: Ruta Pages: 1 -->
<svg width="350pt" height="290pt"
 viewBox="0.00 0.00 350.00 290.00" xmlns="http://www.w3.org/2000/svg" xmlns:xlink="http://www.w3.org/1999/xlink">
<g id="graph0" class="graph" transform="scale(1 1) rotate(0) translate(4 286)">
<title>Ruta</title>
<polygon fill="white" stroke="transparent" points="-4,4 -4,-286 346,-286 346,4 -4,4"/>
<text text-anchor="middle" x="171" y="-10" font-family="Times New Roman,serif" font-size="20.00">Frutas</text>
<!-- nodo(0, 0) -->
<g id="node1" class="node">
<title>nodo(0, 0)</title>
<polygon fill="orchid" stroke="black" points="72,-282 0,-282 0,-246 72,-246 72,-282"/>
<text text-anchor="middle" x="36" y="-260.3" font-family="Times New Roman,serif" font-size="14.00">Uvas</text>
</g>
<!-- nodo(1, 0) -->
<g id="node5" class="node">
<title>nodo(1, 0)</title>
<polygon fill="red" stroke="black" points="72,-210 0,-210 0,-174 72,-174 72,-210"/>
<text text-anchor="middle" x="36" y="-188.3" font-family="Times New Roman,serif" font-size="14.00">Sandias</text>
</g>
<!-- nodo(0, 0)&#45;&gt;nodo(1, 0) -->
<g id="edge1" class="edge">
<title>nodo(0, 0)&#45;&gt;nodo(1, 0)</title>
<path fill="none" stroke="black" d="M36,-245.7C36,-237.98 36,-228.71 36,-220.11"/>
<polygon fill="black" stroke="black" points="39.5,-220.1 36,-210.1 32.5,-220.1 39.5,-220.1"/>
</g>
<!-- nodo(0, 1) -->
<g id="node2" class="node">
<title>nodo(0, 1)</title>
<polygon fill="orchid" stroke="black" points="162,-282 90,-282 90,-246 162,-246 162,-282"/>
<text text-anchor="middle" x="126" y="-260.3" font-family="Times New Roman,serif" font-size="14.00">Arandanos</text>
</g>
<!-- nodo(1, 1) -->
<g id="node6" class="node">
<title>nodo(1, 1)</title>
<polygon fill="red" stroke="black" points="162,-210 90,-210 90,-174 162,-174 162,-210"/>
<text text-anchor="middle" x="126" y="-188.3" font-family="Times New Roman,serif" font-size="14.00">Disponible</text>
</g>
<!-- nodo(0, 1)&#45;&gt;nodo(1, 1) -->
<g id="edge2" class="edge">
<title>nodo(0, 1)&#45;&gt;nodo(1, 1)</title>
<path fill="none" stroke="black" d="M126,-245.7C126,-237.98 126,-228.71 126,-220.11"/>
<polygon fill="black" stroke="black" points="129.5,-220.1 126,-210.1 122.5,-220.1 129.5,-220.1"/>
</g>
<!-- nodo(0, 2) -->
<g id="node3" class="node">
<title>nodo(0, 2)</title>
<polygon fill="yellow" stroke="black" points="252,-282 180,-282 180,-246 252,-246 252,-282"/>
<text text-anchor="middle" x="216" y="-260.3" font-family="Times New Roman,serif" font-size="14.00">Disponible</text>
</g>
<!-- nodo(1, 2) -->
<g id="node7" class="node">
<title>nodo(1, 2)</title>
<polygon fill="red" stroke="black" points="252,-210 180,-210 180,-174 252,-174 252,-210"/>
<text text-anchor="middle" x="216" y="-188.3" font-family="Times New Roman,serif" font-size="14.00">Manzanas</text>
</g>
<!-- nodo(0, 2)&#45;&gt;nodo(1, 2) -->
<g id="edge3" class="edge">
<title>nodo(0, 2)&#45;&gt;nodo(1, 2)</title>
<path fill="none" stroke="black" d="M216,-245.7C216,-237.98 216,-228.71 216,-220.11"/>
<polygon fill="black" stroke="black" points="219.5,-220.1 216,-210.1 212.5,-220.1 219.5,-220.1"/>
</g>
<!-- nodo(0, 3) -->
<g id="node4" class="node">
<title>nodo(0, 3)</title>
<polygon fill="yellow" stroke="black" points="342,-282 270,-282 270,-246 342,-246 342,-282"/>
<text text-anchor="middle" x="306" y="-260.3" font-family="Times New Roman,serif" font-size="14.00">Disponible</text>
</g>
<!-- nodo(1, 3) -->
<g id="node8" class="node">
<title>nodo(1, 3)</title>
<polygon fill="yellow" stroke="black" points="342,-210 270,-210 270,-174 342,-174 342,-210"/>
<text text-anchor="middle" x="306" y="-188.3" font-family="Times New Roman,serif" font-size="14.00">Disponible</text>
</g>
<!-- nodo(0, 3)&#45;&gt;nodo(1, 3) -->
<g id="edge4" class="edge">
<title>nodo(0, 3)&#45;&gt;nodo(1, 3)</title>
<path fill="none" stroke="black" d="M306,-245.7C306,-237.98 306,-228.71 306,-220.11"/>
<polygon fill="black" stroke="black" points="309.5,-220.1 306,-210.1 302.5,-220.1 309.5,-220.1"/>
</g>
<!-- nodo(2, 0) -->
<g id="node9" class="node">
<title>nodo(2, 0)</title>
<polygon fill="yellow" stroke="black" points="72,-138 0,-138 0,-102 72,-102 72,-138"/>
<text text-anchor="middle" x="36" y="-116.3" font-family="Times New Roman,serif" font-size="14.00">Disponible</text>
</g>
<!-- nodo(1, 0)&#45;&gt;nodo(2, 0) -->
<g id="edge5" class="edge">
<title>nodo(1, 0)&#45;&gt;nodo(2, 0)</title>
<path fill="none" stroke="black" d="M36,-173.7C36,-165.98 36,-156.71 36,-148.11"/>
<polygon fill="black" stroke="black" points="39.5,-148.1 36,-138.1 32.5,-148.1 39.5,-148.1"/>
</g>
<!-- nodo(2, 1) -->
<g id="node10" class="node">
<title>nodo(2, 1)</title>
<polygon fill="yellow" stroke="black" points="162,-138 90,-138 90,-102 162,-102 162,-138"/>
<text text-anchor="middle" x="126" y="-116.3" font-family="Times New Roman,serif" font-size="14.00">Disponible</text>
</g>
<!-- nodo(1, 1)&#45;&gt;nodo(2, 1) -->
<g id="edge6" class="edge">
<title>nodo(1, 1)&#45;&gt;nodo(2, 1)</title>
<path fill="none" stroke="black" d="M126,-173.7C126,-165.98 126,-156.71 126,-148.11"/>
<polygon fill="black" stroke="black" points="129.5,-148.1 126,-138.1 122.5,-148.1 129.5,-148.1"/>
</g>
<!-- nodo(2, 2) -->
<g id="node11" class="node">
<title>nodo(2, 2)</title>
<polygon fill="yellow" stroke="black" points="252,-138 180,-138 180,-102 252,-102 252,-138"/>
<text text-anchor="middle" x="216" y="-116.3" font-family="Times New Roman,serif" font-size="14.00">Pinas</text>
</g>
<!-- nodo(1, 2)&#45;&gt;nodo(2, 2) -->
<g id="edge7" class="edge">
<title>nodo(1, 2)&#45;&gt;nodo(2, 2)</title>
<path fill="none" stroke="black" d="M216,-173.7C216,-165.98 216,-156.71 216,-148.11"/>
<polygon fill="black" stroke="black" points="219.5,-148.1 216,-138.1 212.5,-148.1 219.5,-148.1"/>
</g>
<!-- nodo(2, 3) -->
<g id="node12" class="node">
<title>nodo(2, 3)</title>
<polygon fill="yellow" stroke="black" points="342,-138 270,-138 270,-102 342,-102 342,-138"/>
<text text-anchor="middle" x="306" y="-116.3" font-family="Times New Roman,serif" font-size="14.00">Disponible</text>
</g>
<!-- nodo(1, 3)&#45;&gt;nodo(2, 3) -->
<g id="edge8" class="edge">
<title>nodo(1, 3)&#45;&gt;nodo(2, 3)</title>
<path fill="none" stroke="black" d="M306,-173.7C306,-165.98 306,-156.71 306,-148.11"/>
<polygon fill="black" stroke="black" points="309.5,-148.1 306,-138.1 302.5,-148.1 309.5,-148.1"/>
</g>
<!-- nodo(3, 0) -->
<g id="node13" class="node">
<title>nodo(3, 0)</title>
<polygon fill="yellow" stroke="black" points="72,-66 0,-66 0,-30 72,-30 72,-66"/>
<text text-anchor="middle" x="36" y="-44.3" font-family="Times New Roman,serif" font-size="14.00">Disponible</text>
</g>
<!-- nodo(2, 0)&#45;&gt;nodo(3, 0) -->
<g id="edge9" class="edge">
<title>nodo(2, 0)&#45;&gt;nodo(3, 0)</title>
<path fill="none" stroke="black" d="M36,-101.7C36,-93.98 36,-84.71 36,-76.11"/>
<polygon fill="black" stroke="black" points="39.5,-76.1 36,-66.1 32.5,-76.1 39.5,-76.1"/>
</g>
<!-- nodo(3, 1) -->
<g id="node14" class="node">
<title>nodo(3, 1)</title>
<polygon fill="yellow" stroke="black" points="162,-66 90,-66 90,-30 162,-30 162,-66"/>
<text text-anchor="middle" x="126" y="-44.3" font-family="Times New Roman,serif" font-size="14.00">Disponible</text>
</g>
<!-- nodo(2, 1)&#45;&gt;nodo(3, 1) -->
<g id="edge10" class="edge">
<title>nodo(2, 1)&#45;&gt;nodo(3, 1)</title>
<path fill="none" stroke="black" d="M126,-101.7C126,-93.98 126,-84.71 126,-76.11"/>
<polygon fill="black" stroke="black" points="129.5,-76.1 126,-66.1 122.5,-76.1 129.5,-76.1"/>
</g>
<!-- nodo(3, 2) -->
<g id="node15" class="node">
<title>nodo(3, 2)</title>
<polygon fill="yellow" stroke="black" points="252,-66 180,-66 180,-30 252,-30 252,-66"/>
<text text-anchor="middle" x="216" y="-44.3" font-family="Times New Roman,serif" font-size="14.00">Disponible</text>
</g>
<!-- nodo(2, 2)&#45;&gt;nodo(3, 2) -->
<g id="edge11" class="edge">
<title>nodo(2, 2)&#45;&gt;nodo(3, 2)</title>
<path fill="none" stroke="black" d="M216,-101.7C216,-93.98 216,-84.71 216,-76.11"/>
<polygon fill="black" stroke="black" points="219.5,-76.1 216,-66.1 212.5,-76.1 219.5,-76.1"/>
</g>
<!-- nodo(3, 3) -->
<g id="node16" class="node">
<title>nodo(3, 3)</title>
<polygon fill="sandybrown" stroke="black" points="342,-66 270,-66 270,-30 342,-30 342,-66"/>
<text text-anchor="middle" x="306" y="-44.3" font-family="Times New Roman,serif" font-size="14.00">Mango</text>
</g>
<!-- nodo(2, 3)&#45;&gt;nodo(3, 3) -->
<g id="edge12" class="edge">
<title>nodo(2, 3)&#45;&gt;nodo(3, 3)</title>
<path fill="none" stroke="black" d="M306,-101.7C306,-93.98 306,-84.71 306,-76.11"/>
<polygon fill="black" stroke="black" points="309.5,-76.1 306,-66.1 302.5,-76.1 309.5,-76.1"/>
</g>
</g>
</svg>
