<?xml version="1.0" encoding="UTF-8" standalone="no"?>
<!DOCTYPE svg PUBLIC "-//W3C//DTD SVG 1.1//EN"
 "http://www.w3.org/Graphics/SVG/1.1/DTD/svg11.dtd">
<!-- Generated by graphviz version 2.44.1 (20200629.0846)
 -->
<!-- Title: Ruta Pages: 1 -->
<svg width="728pt" height="236pt"
 viewBox="0.00 0.00 728.00 236.00" xmlns="http://www.w3.org/2000/svg" xmlns:xlink="http://www.w3.org/1999/xlink">
<g id="graph0" class="graph" transform="scale(1 1) rotate(0) translate(4 232)">
<title>Ruta</title>
<polygon fill="white" stroke="transparent" points="-4,4 -4,-232 724,-232 724,4 -4,4"/>
<text text-anchor="middle" x="360" y="-10" font-family="Times New Roman,serif" font-size="20.00">Frutas</text>
<!-- nodo(0, 0) -->
<g id="node1" class="node">
<title>nodo(0, 0)</title>
<polygon fill="orchid" stroke="black" points="72,-147 0,-147 0,-111 72,-111 72,-147"/>
<text text-anchor="middle" x="36" y="-125.3" font-family="Times New Roman,serif" font-size="14.00">Uvas</text>
</g>
<!-- nodo(0, 1) -->
<g id="node2" class="node">
<title>nodo(0, 1)</title>
<polygon fill="orchid" stroke="black" points="180,-174 108,-174 108,-138 180,-138 180,-174"/>
<text text-anchor="middle" x="144" y="-152.3" font-family="Times New Roman,serif" font-size="14.00">Arandanos</text>
</g>
<!-- nodo(0, 0)&#45;&gt;nodo(0, 1) -->
<g id="edge2" class="edge">
<title>nodo(0, 0)&#45;&gt;nodo(0, 1)</title>
<path fill="none" stroke="black" d="M72,-137.92C80.24,-140.01 89.13,-142.28 97.74,-144.47"/>
<polygon fill="black" stroke="black" points="97.12,-147.92 107.67,-147 98.85,-141.14 97.12,-147.92"/>
</g>
<!-- nodo(1, 0) -->
<g id="node5" class="node">
<title>nodo(1, 0)</title>
<polygon fill="red" stroke="black" points="180,-120 108,-120 108,-84 180,-84 180,-120"/>
<text text-anchor="middle" x="144" y="-98.3" font-family="Times New Roman,serif" font-size="14.00">Sandias</text>
</g>
<!-- nodo(0, 0)&#45;&gt;nodo(1, 0) -->
<g id="edge1" class="edge">
<title>nodo(0, 0)&#45;&gt;nodo(1, 0)</title>
<path fill="none" stroke="black" d="M72,-120.08C80.24,-117.99 89.13,-115.72 97.74,-113.53"/>
<polygon fill="black" stroke="black" points="98.85,-116.86 107.67,-111 97.12,-110.08 98.85,-116.86"/>
</g>
<!-- nodo(0, 2) -->
<g id="node3" class="node">
<title>nodo(0, 2)</title>
<polygon fill="yellow" stroke="black" points="288,-201 216,-201 216,-165 288,-165 288,-201"/>
<text text-anchor="middle" x="252" y="-179.3" font-family="Times New Roman,serif" font-size="14.00">Disponible</text>
</g>
<!-- nodo(0, 1)&#45;&gt;nodo(0, 2) -->
<g id="edge4" class="edge">
<title>nodo(0, 1)&#45;&gt;nodo(0, 2)</title>
<path fill="none" stroke="black" d="M180,-164.92C188.24,-167.01 197.13,-169.28 205.74,-171.47"/>
<polygon fill="black" stroke="black" points="205.12,-174.92 215.67,-174 206.85,-168.14 205.12,-174.92"/>
</g>
<!-- nodo(1, 1) -->
<g id="node6" class="node">
<title>nodo(1, 1)</title>
<polygon fill="red" stroke="black" points="288,-147 216,-147 216,-111 288,-111 288,-147"/>
<text text-anchor="middle" x="252" y="-125.3" font-family="Times New Roman,serif" font-size="14.00">Disponible</text>
</g>
<!-- nodo(0, 1)&#45;&gt;nodo(1, 1) -->
<g id="edge3" class="edge">
<title>nodo(0, 1)&#45;&gt;nodo(1, 1)</title>
<path fill="none" stroke="black" d="M180,-147.08C188.24,-144.99 197.13,-142.72 205.74,-140.53"/>
<polygon fill="black" stroke="black" points="206.85,-143.86 215.67,-138 205.12,-137.08 206.85,-143.86"/>
</g>
<!-- nodo(0, 3) -->
<g id="node4" class="node">
<title>nodo(0, 3)</title>
<polygon fill="yellow" stroke="black" points="396,-228 324,-228 324,-192 396,-192 396,-228"/>
<text text-anchor="middle" x="360" y="-206.3" font-family="Times New Roman,serif" font-size="14.00">Disponible</text>
</g>
<!-- nodo(0, 2)&#45;&gt;nodo(0, 3) -->
<g id="edge6" class="edge">
<title>nodo(0, 2)&#45;&gt;nodo(0, 3)</title>
<path fill="none" stroke="black" d="M288,-191.92C296.24,-194.01 305.13,-196.28 313.74,-198.47"/>
<polygon fill="black" stroke="black" points="313.12,-201.92 323.67,-201 314.85,-195.14 313.12,-201.92"/>
</g>
<!-- nodo(1, 2) -->
<g id="node7" class="node">
<title>nodo(1, 2)</title>
<polygon fill="red" stroke="black" points="396,-174 324,-174 324,-138 396,-138 396,-174"/>
<text text-anchor="middle" x="360" y="-152.3" font-family="Times New Roman,serif" font-size="14.00">Manzanas</text>
</g>
<!-- nodo(0, 2)&#45;&gt;nodo(1, 2) -->
<g id="edge5" class="edge">
<title>nodo(0, 2)&#45;&gt;nodo(1, 2)</title>
<path fill="none" stroke="black" d="M288,-174.08C296.24,-171.99 305.13,-169.72 313.74,-167.53"/>
<polygon fill="black" stroke="black" points="314.85,-170.86 323.67,-165 313.12,-164.08 314.85,-170.86"/>
</g>
<!-- nodo(1, 3) -->
<g id="node8" class="node">
<title>nodo(1, 3)</title>
<polygon fill="yellow" stroke="black" points="504,-201 432,-201 432,-165 504,-165 504,-201"/>
<text text-anchor="middle" x="468" y="-179.3" font-family="Times New Roman,serif" font-size="14.00">Disponible</text>
</g>
<!-- nodo(0, 3)&#45;&gt;nodo(1, 3) -->
<g id="edge7" class="edge">
<title>nodo(0, 3)&#45;&gt;nodo(1, 3)</title>
<path fill="none" stroke="black" d="M396,-201.08C404.24,-198.99 413.13,-196.72 421.74,-194.53"/>
<polygon fill="black" stroke="black" points="422.85,-197.86 431.67,-192 421.12,-191.08 422.85,-197.86"/>
</g>
<!-- nodo(1, 0)&#45;&gt;nodo(1, 1) -->
<g id="edge9" class="edge">
<title>nodo(1, 0)&#45;&gt;nodo(1, 1)</title>
<path fill="none" stroke="black" d="M180,-110.92C188.24,-113.01 197.13,-115.28 205.74,-117.47"/>
<polygon fill="black" stroke="black" points="205.12,-120.92 215.67,-120 206.85,-114.14 205.12,-120.92"/>
</g>
<!-- nodo(2, 0) -->
<g id="node9" class="node">
<title>nodo(2, 0)</title>
<polygon fill="yellow" stroke="black" points="288,-93 216,-93 216,-57 288,-57 288,-93"/>
<text text-anchor="middle" x="252" y="-71.3" font-family="Times New Roman,serif" font-size="14.00">Disponible</text>
</g>
<!-- nodo(1, 0)&#45;&gt;nodo(2, 0) -->
<g id="edge8" class="edge">
<title>nodo(1, 0)&#45;&gt;nodo(2, 0)</title>
<path fill="none" stroke="black" d="M180,-93.08C188.24,-90.99 197.13,-88.72 205.74,-86.53"/>
<polygon fill="black" stroke="black" points="206.85,-89.86 215.67,-84 205.12,-83.08 206.85,-89.86"/>
</g>
<!-- nodo(1, 1)&#45;&gt;nodo(1, 2) -->
<g id="edge11" class="edge">
<title>nodo(1, 1)&#45;&gt;nodo(1, 2)</title>
<path fill="none" stroke="black" d="M288,-137.92C296.24,-140.01 305.13,-142.28 313.74,-144.47"/>
<polygon fill="black" stroke="black" points="313.12,-147.92 323.67,-147 314.85,-141.14 313.12,-147.92"/>
</g>
<!-- nodo(2, 1) -->
<g id="node10" class="node">
<title>nodo(2, 1)</title>
<polygon fill="yellow" stroke="black" points="396,-120 324,-120 324,-84 396,-84 396,-120"/>
<text text-anchor="middle" x="360" y="-98.3" font-family="Times New Roman,serif" font-size="14.00">Disponible</text>
</g>
<!-- nodo(1, 1)&#45;&gt;nodo(2, 1) -->
<g id="edge10" class="edge">
<title>nodo(1, 1)&#45;&gt;nodo(2, 1)</title>
<path fill="none" stroke="black" d="M288,-120.08C296.24,-117.99 305.13,-115.72 313.74,-113.53"/>
<polygon fill="black" stroke="black" points="314.85,-116.86 323.67,-111 313.12,-110.08 314.85,-116.86"/>
</g>
<!-- nodo(1, 2)&#45;&gt;nodo(1, 3) -->
<g id="edge13" class="edge">
<title>nodo(1, 2)&#45;&gt;nodo(1, 3)</title>
<path fill="none" stroke="black" d="M396,-164.92C404.24,-167.01 413.13,-169.28 421.74,-171.47"/>
<polygon fill="black" stroke="black" points="421.12,-174.92 431.67,-174 422.85,-168.14 421.12,-174.92"/>
</g>
<!-- nodo(2, 2) -->
<g id="node11" class="node">
<title>nodo(2, 2)</title>
<polygon fill="yellow" stroke="black" points="504,-147 432,-147 432,-111 504,-111 504,-147"/>
<text text-anchor="middle" x="468" y="-125.3" font-family="Times New Roman,serif" font-size="14.00">Pinas</text>
</g>
<!-- nodo(1, 2)&#45;&gt;nodo(2, 2) -->
<g id="edge12" class="edge">
<title>nodo(1, 2)&#45;&gt;nodo(2, 2)</title>
<path fill="none" stroke="black" d="M396,-147.08C404.24,-144.99 413.13,-142.72 421.74,-140.53"/>
<polygon fill="black" stroke="black" points="422.85,-143.86 431.67,-138 421.12,-137.08 422.85,-143.86"/>
</g>
<!-- nodo(2, 3) -->
<g id="node12" class="node">
<title>nodo(2, 3)</title>
<polygon fill="yellow" stroke="black" points="612,-174 540,-174 540,-138 612,-138 612,-174"/>
<text text-anchor="middle" x="576" y="-152.3" font-family="Times New Roman,serif" font-size="14.00">Disponible</text>
</g>
<!-- nodo(1, 3)&#45;&gt;nodo(2, 3) -->
<g id="edge14" class="edge">
<title>nodo(1, 3)&#45;&gt;nodo(2, 3)</title>
<path fill="none" stroke="black" d="M504,-174.08C512.24,-171.99 521.13,-169.72 529.74,-167.53"/>
<polygon fill="black" stroke="black" points="530.85,-170.86 539.67,-165 529.12,-164.08 530.85,-170.86"/>
</g>
<!-- nodo(2, 0)&#45;&gt;nodo(2, 1) -->
<g id="edge16" class="edge">
<title>nodo(2, 0)&#45;&gt;nodo(2, 1)</title>
<path fill="none" stroke="black" d="M288,-83.92C296.24,-86.01 305.13,-88.28 313.74,-90.47"/>
<polygon fill="black" stroke="black" points="313.12,-93.92 323.67,-93 314.85,-87.14 313.12,-93.92"/>
</g>
<!-- nodo(3, 0) -->
<g id="node13" class="node">
<title>nodo(3, 0)</title>
<polygon fill="yellow" stroke="black" points="396,-66 324,-66 324,-30 396,-30 396,-66"/>
<text text-anchor="middle" x="360" y="-44.3" font-family="Times New Roman,serif" font-size="14.00">Disponible</text>
</g>
<!-- nodo(2, 0)&#45;&gt;nodo(3, 0) -->
<g id="edge15" class="edge">
<title>nodo(2, 0)&#45;&gt;nodo(3, 0)</title>
<path fill="none" stroke="black" d="M288,-66.08C296.24,-63.99 305.13,-61.72 313.74,-59.53"/>
<polygon fill="black" stroke="black" points="314.85,-62.86 323.67,-57 313.12,-56.08 314.85,-62.86"/>
</g>
<!-- nodo(2, 1)&#45;&gt;nodo(2, 2) -->
<g id="edge18" class="edge">
<title>nodo(2, 1)&#45;&gt;nodo(2, 2)</title>
<path fill="none" stroke="black" d="M396,-110.92C404.24,-113.01 413.13,-115.28 421.74,-117.47"/>
<polygon fill="black" stroke="black" points="421.12,-120.92 431.67,-120 422.85,-114.14 421.12,-120.92"/>
</g>
<!-- nodo(3, 1) -->
<g id="node14" class="node">
<title>nodo(3, 1)</title>
<polygon fill="yellow" stroke="black" points="504,-93 432,-93 432,-57 504,-57 504,-93"/>
<text text-anchor="middle" x="468" y="-71.3" font-family="Times New Roman,serif" font-size="14.00">Disponible</text>
</g>
<!-- nodo(2, 1)&#45;&gt;nodo(3, 1) -->
<g id="edge17" class="edge">
<title>nodo(2, 1)&#45;&gt;nodo(3, 1)</title>
<path fill="none" stroke="black" d="M396,-93.08C404.24,-90.99 413.13,-88.72 421.74,-86.53"/>
<polygon fill="black" stroke="black" points="422.85,-89.86 431.67,-84 421.12,-83.08 422.85,-89.86"/>
</g>
<!-- nodo(2, 2)&#45;&gt;nodo(2, 3) -->
<g id="edge20" class="edge">
<title>nodo(2, 2)&#45;&gt;nodo(2, 3)</title>
<path fill="none" stroke="black" d="M504,-137.92C512.24,-140.01 521.13,-142.28 529.74,-144.47"/>
<polygon fill="black" stroke="black" points="529.12,-147.92 539.67,-147 530.85,-141.14 529.12,-147.92"/>
</g>
<!-- nodo(3, 2) -->
<g id="node15" class="node">
<title>nodo(3, 2)</title>
<polygon fill="yellow" stroke="black" points="612,-120 540,-120 540,-84 612,-84 612,-120"/>
<text text-anchor="middle" x="576" y="-98.3" font-family="Times New Roman,serif" font-size="14.00">Disponible</text>
</g>
<!-- nodo(2, 2)&#45;&gt;nodo(3, 2) -->
<g id="edge19" class="edge">
<title>nodo(2, 2)&#45;&gt;nodo(3, 2)</title>
<path fill="none" stroke="black" d="M504,-120.08C512.24,-117.99 521.13,-115.72 529.74,-113.53"/>
<polygon fill="black" stroke="black" points="530.85,-116.86 539.67,-111 529.12,-110.08 530.85,-116.86"/>
</g>
<!-- nodo(3, 3) -->
<g id="node16" class="node">
<title>nodo(3, 3)</title>
<polygon fill="sandybrown" stroke="black" points="720,-147 648,-147 648,-111 720,-111 720,-147"/>
<text text-anchor="middle" x="684" y="-125.3" font-family="Times New Roman,serif" font-size="14.00">Mango</text>
</g>
<!-- nodo(2, 3)&#45;&gt;nodo(3, 3) -->
<g id="edge21" class="edge">
<title>nodo(2, 3)&#45;&gt;nodo(3, 3)</title>
<path fill="none" stroke="black" d="M612,-147.08C620.24,-144.99 629.13,-142.72 637.74,-140.53"/>
<polygon fill="black" stroke="black" points="638.85,-143.86 647.67,-138 637.12,-137.08 638.85,-143.86"/>
</g>
<!-- nodo(3, 0)&#45;&gt;nodo(3, 1) -->
<g id="edge22" class="edge">
<title>nodo(3, 0)&#45;&gt;nodo(3, 1)</title>
<path fill="none" stroke="black" d="M396,-56.92C404.24,-59.01 413.13,-61.28 421.74,-63.47"/>
<polygon fill="black" stroke="black" points="421.12,-66.92 431.67,-66 422.85,-60.14 421.12,-66.92"/>
</g>
<!-- nodo(3, 1)&#45;&gt;nodo(3, 2) -->
<g id="edge23" class="edge">
<title>nodo(3, 1)&#45;&gt;nodo(3, 2)</title>
<path fill="none" stroke="black" d="M504,-83.92C512.24,-86.01 521.13,-88.28 529.74,-90.47"/>
<polygon fill="black" stroke="black" points="529.12,-93.92 539.67,-93 530.85,-87.14 529.12,-93.92"/>
</g>
<!-- nodo(3, 2)&#45;&gt;nodo(3, 3) -->
<g id="edge24" class="edge">
<title>nodo(3, 2)&#45;&gt;nodo(3, 3)</title>
<path fill="none" stroke="black" d="M612,-110.92C620.24,-113.01 629.13,-115.28 637.74,-117.47"/>
<polygon fill="black" stroke="black" points="637.12,-120.92 647.67,-120 638.85,-114.14 637.12,-120.92"/>
</g>
</g>
</svg>
