<?xml version="1.0" encoding="UTF-8" standalone="no"?>
<!DOCTYPE svg PUBLIC "-//W3C//DTD SVG 1.1//EN"
 "http://www.w3.org/Graphics/SVG/1.1/DTD/svg11.dtd">
<!-- Generated by graphviz version 2.44.1 (20200629.0846)
 -->
<!-- Title: Ruta Pages: 1 -->
<svg width="350pt" height="290pt"
 viewBox="0.00 0.00 350.00 290.00" xmlns="http://www.w3.org/2000/svg" xmlns:xlink="http://www.w3.org/1999/xlink">
<g id="graph0" class="graph" transform="scale(1 1) rotate(0) translate(4 286)">
<title>Ruta</title>
<polygon fill="white" stroke="transparent" points="-4,4 -4,-286 346,-286 346,4 -4,4"/>
<text text-anchor="middle" x="171" y="-10" font-family="Times New Roman,serif" font-size="20.00">Frutas</text>
<!-- nodo(0, 0) -->
<g id="node1" class="node">
<title>nodo(0, 0)</title>
<polygon fill="orchid" stroke="black" points="72,-282 0,-282 0,-246 72,-246 72,-282"/>
<text text-anchor="middle" x="36" y="-260.3" font-family="Times New Roman,serif" font-size="14.00">Uvas</text>
</g>
<!-- nodo(1, 0) -->
<g id="node5" class="node">
<title>nodo(1, 0)</title>
<polygon fill="red" stroke="black" points="72,-210 0,-210 0,-174 72,-174 72,-210"/>
<text text-anchor="middle" x="36" y="-188.3" font-family="Times New Roman,serif" font-size="14.00">Sandias</text>
</g>
<!-- nodo(0, 0)&#45;&gt;nodo(1, 0) -->
<g id="edge1" class="edge">
<title>nodo(0, 0)&#45;&gt;nodo(1, 0)</title>
<path fill="none" stroke="black" d="M30.08,-245.7C29.29,-237.98 29.06,-228.71 29.4,-220.11"/>
<polygon fill="black" stroke="black" points="32.9,-220.32 30.1,-210.1 25.92,-219.84 32.9,-220.32"/>
</g>
<!-- nodo(0, 1) -->
<g id="node2" class="node">
<title>nodo(0, 1)</title>
<polygon fill="orchid" stroke="black" points="162,-282 90,-282 90,-246 162,-246 162,-282"/>
<text text-anchor="middle" x="126" y="-260.3" font-family="Times New Roman,serif" font-size="14.00">Arandanos</text>
</g>
<!-- nodo(1, 1) -->
<g id="node6" class="node">
<title>nodo(1, 1)</title>
<polygon fill="red" stroke="black" points="162,-210 90,-210 90,-174 162,-174 162,-210"/>
<text text-anchor="middle" x="126" y="-188.3" font-family="Times New Roman,serif" font-size="14.00">Disponible</text>
</g>
<!-- nodo(0, 1)&#45;&gt;nodo(1, 1) -->
<g id="edge2" class="edge">
<title>nodo(0, 1)&#45;&gt;nodo(1, 1)</title>
<path fill="none" stroke="black" d="M120.08,-245.7C119.29,-237.98 119.06,-228.71 119.4,-220.11"/>
<polygon fill="black" stroke="black" points="122.9,-220.32 120.1,-210.1 115.92,-219.84 122.9,-220.32"/>
</g>
<!-- nodo(0, 2) -->
<g id="node3" class="node">
<title>nodo(0, 2)</title>
<polygon fill="yellow" stroke="black" points="252,-282 180,-282 180,-246 252,-246 252,-282"/>
<text text-anchor="middle" x="216" y="-260.3" font-family="Times New Roman,serif" font-size="14.00">Disponible</text>
</g>
<!-- nodo(1, 2) -->
<g id="node7" class="node">
<title>nodo(1, 2)</title>
<polygon fill="red" stroke="black" points="252,-210 180,-210 180,-174 252,-174 252,-210"/>
<text text-anchor="middle" x="216" y="-188.3" font-family="Times New Roman,serif" font-size="14.00">Manzanas</text>
</g>
<!-- nodo(0, 2)&#45;&gt;nodo(1, 2) -->
<g id="edge3" class="edge">
<title>nodo(0, 2)&#45;&gt;nodo(1, 2)</title>
<path fill="none" stroke="black" d="M210.08,-245.7C209.29,-237.98 209.06,-228.71 209.4,-220.11"/>
<polygon fill="black" stroke="black" points="212.9,-220.32 210.1,-210.1 205.92,-219.84 212.9,-220.32"/>
</g>
<!-- nodo(0, 3) -->
<g id="node4" class="node">
<title>nodo(0, 3)</title>
<polygon fill="yellow" stroke="black" points="342,-282 270,-282 270,-246 342,-246 342,-282"/>
<text text-anchor="middle" x="306" y="-260.3" font-family="Times New Roman,serif" font-size="14.00">Disponible</text>
</g>
<!-- nodo(1, 3) -->
<g id="node8" class="node">
<title>nodo(1, 3)</title>
<polygon fill="yellow" stroke="black" points="342,-210 270,-210 270,-174 342,-174 342,-210"/>
<text text-anchor="middle" x="306" y="-188.3" font-family="Times New Roman,serif" font-size="14.00">Disponible</text>
</g>
<!-- nodo(0, 3)&#45;&gt;nodo(1, 3) -->
<g id="edge4" class="edge">
<title>nodo(0, 3)&#45;&gt;nodo(1, 3)</title>
<path fill="none" stroke="black" d="M300.08,-245.7C299.29,-237.98 299.06,-228.71 299.4,-220.11"/>
<polygon fill="black" stroke="black" points="302.9,-220.32 300.1,-210.1 295.92,-219.84 302.9,-220.32"/>
</g>
<!-- nodo(1, 0)&#45;&gt;nodo(0, 0) -->
<g id="edge13" class="edge">
<title>nodo(1, 0)&#45;&gt;nodo(0, 0)</title>
<path fill="none" stroke="black" d="M41.9,-210.1C42.7,-217.79 42.94,-227.05 42.6,-235.67"/>
<polygon fill="black" stroke="black" points="39.11,-235.48 41.92,-245.7 46.09,-235.96 39.11,-235.48"/>
</g>
<!-- nodo(2, 0) -->
<g id="node9" class="node">
<title>nodo(2, 0)</title>
<polygon fill="yellow" stroke="black" points="72,-138 0,-138 0,-102 72,-102 72,-138"/>
<text text-anchor="middle" x="36" y="-116.3" font-family="Times New Roman,serif" font-size="14.00">Disponible</text>
</g>
<!-- nodo(1, 0)&#45;&gt;nodo(2, 0) -->
<g id="edge5" class="edge">
<title>nodo(1, 0)&#45;&gt;nodo(2, 0)</title>
<path fill="none" stroke="black" d="M30.08,-173.7C29.29,-165.98 29.06,-156.71 29.4,-148.11"/>
<polygon fill="black" stroke="black" points="32.9,-148.32 30.1,-138.1 25.92,-147.84 32.9,-148.32"/>
</g>
<!-- nodo(1, 1)&#45;&gt;nodo(0, 1) -->
<g id="edge14" class="edge">
<title>nodo(1, 1)&#45;&gt;nodo(0, 1)</title>
<path fill="none" stroke="black" d="M131.9,-210.1C132.7,-217.79 132.94,-227.05 132.6,-235.67"/>
<polygon fill="black" stroke="black" points="129.11,-235.48 131.92,-245.7 136.09,-235.96 129.11,-235.48"/>
</g>
<!-- nodo(2, 1) -->
<g id="node10" class="node">
<title>nodo(2, 1)</title>
<polygon fill="yellow" stroke="black" points="162,-138 90,-138 90,-102 162,-102 162,-138"/>
<text text-anchor="middle" x="126" y="-116.3" font-family="Times New Roman,serif" font-size="14.00">Disponible</text>
</g>
<!-- nodo(1, 1)&#45;&gt;nodo(2, 1) -->
<g id="edge6" class="edge">
<title>nodo(1, 1)&#45;&gt;nodo(2, 1)</title>
<path fill="none" stroke="black" d="M120.08,-173.7C119.29,-165.98 119.06,-156.71 119.4,-148.11"/>
<polygon fill="black" stroke="black" points="122.9,-148.32 120.1,-138.1 115.92,-147.84 122.9,-148.32"/>
</g>
<!-- nodo(1, 2)&#45;&gt;nodo(0, 2) -->
<g id="edge15" class="edge">
<title>nodo(1, 2)&#45;&gt;nodo(0, 2)</title>
<path fill="none" stroke="black" d="M221.9,-210.1C222.7,-217.79 222.94,-227.05 222.6,-235.67"/>
<polygon fill="black" stroke="black" points="219.11,-235.48 221.92,-245.7 226.09,-235.96 219.11,-235.48"/>
</g>
<!-- nodo(2, 2) -->
<g id="node11" class="node">
<title>nodo(2, 2)</title>
<polygon fill="yellow" stroke="black" points="252,-138 180,-138 180,-102 252,-102 252,-138"/>
<text text-anchor="middle" x="216" y="-116.3" font-family="Times New Roman,serif" font-size="14.00">Pinas</text>
</g>
<!-- nodo(1, 2)&#45;&gt;nodo(2, 2) -->
<g id="edge7" class="edge">
<title>nodo(1, 2)&#45;&gt;nodo(2, 2)</title>
<path fill="none" stroke="black" d="M210.08,-173.7C209.29,-165.98 209.06,-156.71 209.4,-148.11"/>
<polygon fill="black" stroke="black" points="212.9,-148.32 210.1,-138.1 205.92,-147.84 212.9,-148.32"/>
</g>
<!-- nodo(1, 3)&#45;&gt;nodo(0, 3) -->
<g id="edge16" class="edge">
<title>nodo(1, 3)&#45;&gt;nodo(0, 3)</title>
<path fill="none" stroke="black" d="M311.9,-210.1C312.7,-217.79 312.94,-227.05 312.6,-235.67"/>
<polygon fill="black" stroke="black" points="309.11,-235.48 311.92,-245.7 316.09,-235.96 309.11,-235.48"/>
</g>
<!-- nodo(2, 3) -->
<g id="node12" class="node">
<title>nodo(2, 3)</title>
<polygon fill="yellow" stroke="black" points="342,-138 270,-138 270,-102 342,-102 342,-138"/>
<text text-anchor="middle" x="306" y="-116.3" font-family="Times New Roman,serif" font-size="14.00">Disponible</text>
</g>
<!-- nodo(1, 3)&#45;&gt;nodo(2, 3) -->
<g id="edge8" class="edge">
<title>nodo(1, 3)&#45;&gt;nodo(2, 3)</title>
<path fill="none" stroke="black" d="M300.08,-173.7C299.29,-165.98 299.06,-156.71 299.4,-148.11"/>
<polygon fill="black" stroke="black" points="302.9,-148.32 300.1,-138.1 295.92,-147.84 302.9,-148.32"/>
</g>
<!-- nodo(2, 0)&#45;&gt;nodo(1, 0) -->
<g id="edge17" class="edge">
<title>nodo(2, 0)&#45;&gt;nodo(1, 0)</title>
<path fill="none" stroke="black" d="M41.9,-138.1C42.7,-145.79 42.94,-155.05 42.6,-163.67"/>
<polygon fill="black" stroke="black" points="39.11,-163.48 41.92,-173.7 46.09,-163.96 39.11,-163.48"/>
</g>
<!-- nodo(3, 0) -->
<g id="node13" class="node">
<title>nodo(3, 0)</title>
<polygon fill="yellow" stroke="black" points="72,-66 0,-66 0,-30 72,-30 72,-66"/>
<text text-anchor="middle" x="36" y="-44.3" font-family="Times New Roman,serif" font-size="14.00">Disponible</text>
</g>
<!-- nodo(2, 0)&#45;&gt;nodo(3, 0) -->
<g id="edge9" class="edge">
<title>nodo(2, 0)&#45;&gt;nodo(3, 0)</title>
<path fill="none" stroke="black" d="M30.08,-101.7C29.29,-93.98 29.06,-84.71 29.4,-76.11"/>
<polygon fill="black" stroke="black" points="32.9,-76.32 30.1,-66.1 25.92,-75.84 32.9,-76.32"/>
</g>
<!-- nodo(2, 1)&#45;&gt;nodo(1, 1) -->
<g id="edge18" class="edge">
<title>nodo(2, 1)&#45;&gt;nodo(1, 1)</title>
<path fill="none" stroke="black" d="M131.9,-138.1C132.7,-145.79 132.94,-155.05 132.6,-163.67"/>
<polygon fill="black" stroke="black" points="129.11,-163.48 131.92,-173.7 136.09,-163.96 129.11,-163.48"/>
</g>
<!-- nodo(3, 1) -->
<g id="node14" class="node">
<title>nodo(3, 1)</title>
<polygon fill="yellow" stroke="black" points="162,-66 90,-66 90,-30 162,-30 162,-66"/>
<text text-anchor="middle" x="126" y="-44.3" font-family="Times New Roman,serif" font-size="14.00">Disponible</text>
</g>
<!-- nodo(2, 1)&#45;&gt;nodo(3, 1) -->
<g id="edge10" class="edge">
<title>nodo(2, 1)&#45;&gt;nodo(3, 1)</title>
<path fill="none" stroke="black" d="M120.08,-101.7C119.29,-93.98 119.06,-84.71 119.4,-76.11"/>
<polygon fill="black" stroke="black" points="122.9,-76.32 120.1,-66.1 115.92,-75.84 122.9,-76.32"/>
</g>
<!-- nodo(2, 2)&#45;&gt;nodo(1, 2) -->
<g id="edge19" class="edge">
<title>nodo(2, 2)&#45;&gt;nodo(1, 2)</title>
<path fill="none" stroke="black" d="M221.9,-138.1C222.7,-145.79 222.94,-155.05 222.6,-163.67"/>
<polygon fill="black" stroke="black" points="219.11,-163.48 221.92,-173.7 226.09,-163.96 219.11,-163.48"/>
</g>
<!-- nodo(3, 2) -->
<g id="node15" class="node">
<title>nodo(3, 2)</title>
<polygon fill="yellow" stroke="black" points="252,-66 180,-66 180,-30 252,-30 252,-66"/>
<text text-anchor="middle" x="216" y="-44.3" font-family="Times New Roman,serif" font-size="14.00">Disponible</text>
</g>
<!-- nodo(2, 2)&#45;&gt;nodo(3, 2) -->
<g id="edge11" class="edge">
<title>nodo(2, 2)&#45;&gt;nodo(3, 2)</title>
<path fill="none" stroke="black" d="M210.08,-101.7C209.29,-93.98 209.06,-84.71 209.4,-76.11"/>
<polygon fill="black" stroke="black" points="212.9,-76.32 210.1,-66.1 205.92,-75.84 212.9,-76.32"/>
</g>
<!-- nodo(2, 3)&#45;&gt;nodo(1, 3) -->
<g id="edge20" class="edge">
<title>nodo(2, 3)&#45;&gt;nodo(1, 3)</title>
<path fill="none" stroke="black" d="M311.9,-138.1C312.7,-145.79 312.94,-155.05 312.6,-163.67"/>
<polygon fill="black" stroke="black" points="309.11,-163.48 311.92,-173.7 316.09,-163.96 309.11,-163.48"/>
</g>
<!-- nodo(3, 3) -->
<g id="node16" class="node">
<title>nodo(3, 3)</title>
<polygon fill="sandybrown" stroke="black" points="342,-66 270,-66 270,-30 342,-30 342,-66"/>
<text text-anchor="middle" x="306" y="-44.3" font-family="Times New Roman,serif" font-size="14.00">Mango</text>
</g>
<!-- nodo(2, 3)&#45;&gt;nodo(3, 3) -->
<g id="edge12" class="edge">
<title>nodo(2, 3)&#45;&gt;nodo(3, 3)</title>
<path fill="none" stroke="black" d="M300.08,-101.7C299.29,-93.98 299.06,-84.71 299.4,-76.11"/>
<polygon fill="black" stroke="black" points="302.9,-76.32 300.1,-66.1 295.92,-75.84 302.9,-76.32"/>
</g>
<!-- nodo(3, 0)&#45;&gt;nodo(2, 0) -->
<g id="edge21" class="edge">
<title>nodo(3, 0)&#45;&gt;nodo(2, 0)</title>
<path fill="none" stroke="black" d="M41.9,-66.1C42.7,-73.79 42.94,-83.05 42.6,-91.67"/>
<polygon fill="black" stroke="black" points="39.11,-91.48 41.92,-101.7 46.09,-91.96 39.11,-91.48"/>
</g>
<!-- nodo(3, 1)&#45;&gt;nodo(2, 1) -->
<g id="edge22" class="edge">
<title>nodo(3, 1)&#45;&gt;nodo(2, 1)</title>
<path fill="none" stroke="black" d="M131.9,-66.1C132.7,-73.79 132.94,-83.05 132.6,-91.67"/>
<polygon fill="black" stroke="black" points="129.11,-91.48 131.92,-101.7 136.09,-91.96 129.11,-91.48"/>
</g>
<!-- nodo(3, 2)&#45;&gt;nodo(2, 2) -->
<g id="edge23" class="edge">
<title>nodo(3, 2)&#45;&gt;nodo(2, 2)</title>
<path fill="none" stroke="black" d="M221.9,-66.1C222.7,-73.79 222.94,-83.05 222.6,-91.67"/>
<polygon fill="black" stroke="black" points="219.11,-91.48 221.92,-101.7 226.09,-91.96 219.11,-91.48"/>
</g>
<!-- nodo(3, 3)&#45;&gt;nodo(2, 3) -->
<g id="edge24" class="edge">
<title>nodo(3, 3)&#45;&gt;nodo(2, 3)</title>
<path fill="none" stroke="black" d="M311.9,-66.1C312.7,-73.79 312.94,-83.05 312.6,-91.67"/>
<polygon fill="black" stroke="black" points="309.11,-91.48 311.92,-101.7 316.09,-91.96 309.11,-91.48"/>
</g>
</g>
</svg>
